# AST/ASF file generated using VICON BodyLanguage
# -----------------------------------------------
:version 1.10
:name VICON
:units
  mass 1.0
  length 0.45
  angle deg
:documentation
   .ast/.asf automatically generated from VICON data using
   VICON BodyBuilder and BodyLanguage model FoxedUp or BRILLIANT.MOD
:root
   order TX TY TZ RX RY RZ
   axis XYZ
   position 0 0 0  
   orientation 0 0 0 
:bonedata
  begin
     id 1 
     name lhipjoint
     direction 0.661853 -0.702389 0.261917 
     length 2.64193 
     axis 0 0 0  XYZ
  end
  begin
     id 2 
     name lfemur
     direction 0.34202 -0.939693 0  
     length 7.01722  
     axis 0 0 20  XYZ
    dof rx ry rz
    limits (-160.0 20.0)
           (-70.0 70.0)
           (-60.0 70.0)
  end
  begin
     id 3 
     name ltibia
     direction 0.34202 -0.939693 0   
     length 8.25008   
     axis 0 0 20   XYZ
    dof rx
    limits (-10.0 170.0)
  end
  begin
     id 4 
     name lfoot
     direction 0.0709916 -0.195048 0.978221   
     length 2.31941   
     axis -90 7.62852e-016 20   XYZ
    dof rx rz
    limits (-45.0 90.0)
           (-70.0 20.0)
  end
  begin
     id 5 
     name ltoes
     direction 1.53586e-011 -4.22017e-011 1   
     length 1.16486   
     axis -90 7.62852e-016 20   XYZ
    dof rx
    limits (-90.0 20.0)
  end
  begin
     id 6 
     name rhipjoint
     direction -0.638185 -0.721362 0.268992   
     length 2.57244  
     axis 0 0 0  XYZ 
  end
  begin
     id 7 
     name rfemur
     direction -0.34202 -0.939693 0   
     length 7.07017   
     axis 0 0 -20   XYZ
    dof rx ry rz
    limits (-160.0 20.0)
           (-70.0 70.0)
           (-70.0 60.0)
  end
  begin
     id 8 
     name rtibia
     direction -0.34202 -0.939693 0   
     length 8.20386   
     axis 0 0 -20   XYZ
    dof rx
    limits (-10.0 170.0)
 end
 begin
     id 9 
     name rfoot
     direction -0.0822429 -0.225961 0.970658   
     length 2.32215  
     axis -90 -7.62852e-016 -20   XYZ
    dof rx rz
    limits (-45.0 90.0)
           (-20.0 70.0)
  end
  begin
     id 10 
     name rtoes
     direction -1.53597e-011 -4.21689e-011 1   
     length 1.16333   
     axis -90 -7.62852e-016 -20   XYZ
    dof rx
    limits (-90.0 20.0)
  end
  begin
     id 11 
     name lowerback
     direction -0.0131557 0.998589 -0.0514484   
     length 2.14993   
     axis 0 0 0   XYZ
    dof rx ry rz
    limits (-20.0 45.0)
           (-30.0 30.0)
           (-30.0 30.0)
  end
  begin
     id 12 
     name upperback
     direction -0.000776481 0.999993 0.00352685   
     length 2.15301   
     axis 0 0 0   XYZ
    dof rx ry rz
    limits (-20.0 45.0)
           (-30.0 30.0)
           (-30.0 30.0)
  end
  begin
     id 13 
     name thorax
     direction 0.00438186 0.999609 0.0276143   
     length 2.15424   
     axis 0 0 0   XYZ
    dof rx ry rz
    limits (-20.0 45.0)
           (-30.0 30.0)
           (-30.0 30.0)
  end
  begin
     id 14 
     name lowerneck
     direction -0.0488006 0.998094 0.0377807   
     length 1.90481   
     axis 0 0 0   XYZ
    dof rx ry rz
    limits (-20.0 45.0)
           (-30.0 30.0)
           (-30.0 30.0)
  end
  begin
     id 15 
     name upperneck
     direction 0.0443769 0.990702 -0.12861   
     length 1.91305   
     axis 0 0 0   XYZ
    dof rx ry rz
    limits (-20.0 45.0)
           (-30.0 30.0)
           (-30.0 30.0)
  end
  begin
     id 16
     name head
     direction 0.0165599 0.998647 -0.0492982  
     length 1.92369  
     axis 0 0 0   XYZ
    dof rx ry rz
    limits (-20.0 45.0)
           (-30.0 30.0)
           (-30.0 30.0)
  end
  begin
     id 17 
     name lclavicle
     direction 0.911936 0.410197 -0.0105506  
     length 3.52622  
     axis 0 0 0   XYZ
    dof ry rz
    limits (-20.0 10.0)
           (0.0 20.0)
  end
  begin
     id 18 
     name lhumerus
     direction 1 -4.48974e-011 -2.48591e-028   
     length 5.47651   
     axis 180 -30 -90   XYZ
    dof rx ry rz
    limits (-60.0 90.0)
           (-90.0 90.0)
           (-90.0 90.0)
  end
  begin
     id 19
     name lradius
     direction 1 -4.48938e-011 -4.40099e-027   
     length 3.09058   
     axis 180 -30 -90   XYZ
    dof rx
    limits (-10.0 170.0)
  end
  begin
     id 20
     name lwrist
     direction 1 -4.49042e-011 -2.99852e-027   
     length 1.54529   
     axis 1.95339e-015 90 90   XYZ
    dof ry
    limits (-180.0 0.0)
 end
  begin
     id 21 
     name lhand
     direction 1 -4.48815e-011 -5.98193e-027   
     length 0.771611   
     axis 3.82337e-015 90 90   XYZ
    dof rx rz
    limits (-90.0 90.0)
           (-45.0 45.0)
  end
  begin
     id 22 
     name lfingers
     direction 1 -4.49034e-011 -1.1993e-026   
     length 0.622093   
     axis 7.64668e-015 90 90   XYZ
    dof rx
    limits (0.0 90.0)
  end
  begin
     id 23
     name lthumb
     direction 0.707107 -6.34867e-011 0.707107   
     length 0.893204   
     axis -90 45 -1.62303e-014   XYZ
    dof rx rz
    limits (-45.0 45.0)
           (-45.0 45.0)
  end
  begin
     id 24 
     name rclavicle
     direction -0.93442 0.355634 -0.0195692   
     length 3.62463  
     axis 0 0 0   XYZ 
    dof ry rz
    limits (-10.0 20.0)
           (-20.0 0.0)
  end
  begin
     id 25 
     name rhumerus
     direction -1 -4.48957e-011 -1.19147e-027  
     length 5.14182   
     axis 180 30 90   XYZ
    dof rx ry rz
    limits (-90.0 60.0)
           (-90.0 90.0)
           (-90.0 90.0)
  end
  begin
     id 26 
     name rradius
     direction -1 -4.48952e-011 -3.81062e-027   
     length 3.35565   
     axis 180 30 90   XYZ
    dof rx
    limits (-10.0 170.0)
  end
  begin
     id 27 
     name rwrist
     direction -1 -4.48973e-011 -2.99621e-027   
     length 1.67782   
     axis 1.95339e-015 -90 -90   XYZ
    dof ry
    limits (-180.0 0.0)
  end
  begin
     id 28
     name rhand
     direction -1 -4.48895e-011 -5.98727e-027   
     length 0.801042   
     axis 3.82337e-015 -90 -90   XYZ
    dof rx rz
    limits (-90.0 90.0)
           (-45.0 45.0)
  end
  begin
     id 29
     name rfingers
     direction -1 -4.49065e-011 -1.19972e-026   
     length 0.645821   
     axis 7.64668e-015 -90 -90   XYZ
    dof rx
    limits (0.0 90.0)
  end
  begin
     id 30
     name rthumb
     direction -0.707107 -6.34957e-011 0.707107   
     length 0.927273   
     axis -90 -45 1.62303e-014   XYZ
    dof rx rz
    limits (-45.0 45.0)
           (-45.0 45.0)
  end
:hierarchy
  begin
    root lhipjoint rhipjoint lowerback
    lhipjoint lfemur
    lfemur ltibia
    ltibia lfoot
    lfoot ltoes
    rhipjoint rfemur
    rfemur rtibia
    rtibia rfoot
    rfoot rtoes
    lowerback upperback
    upperback thorax
    thorax lowerneck lclavicle rclavicle
    lowerneck upperneck
    upperneck head
    lclavicle lhumerus
    lhumerus lradius
    lradius lwrist
    lwrist lhand lthumb
    lhand lfingers
    rclavicle rhumerus
    rhumerus rradius
    rradius rwrist
    rwrist rhand rthumb
    rhand rfingers
  end

#!OML:ASF E:\Style4\Style4.ASF
:FULLY-SPECIFIED
:DEGREES
465
root -0.412349 18.0652 -1.84029 1.03658 0.107253 1.94653
lowerback 4.27239 4.01194 -1.34938
upperback 0.562996 5.25742 -1.29003
thorax -1.80831 2.62913 -0.873686
lowerneck 0.0850054 -4.39446 -7.13983
upperneck -7.72884 -5.34538 11.3053
head -1.76265 -2.77101 4.63693
rclavicle -9.67212e-015 1.07344e-014
rhumerus -27.6182 50.5999 -57.6748
rradius 103.092
rwrist -51.4199
rhand -2.94639 7.55054
rfingers 7.12502
rthumb 22.7654 -21.1262
lclavicle -9.67212e-015 1.07344e-014
lhumerus -54.4053 -52.2719 99.083
lradius 108.193
lwrist 25.5415
lhand -0.832232 21.4333
lfingers 7.12502
lthumb 24.793 49.8462
rfemur -8.70978 2.90391 17.4065
rtibia 23.2405
rfoot -14.6556 -14.5541
rtoes -9.5417
lfemur -4.14666 -2.82571 -20.8882
ltibia 18.2326
lfoot -15.6635 13.1506
ltoes -14.3061
466
root -0.414862 18.0697 -1.82924 1.11558 0.267389 1.81441
lowerback 4.21434 3.94882 -1.12416
upperback 0.493963 5.18672 -1.15634
thorax -1.83955 2.59286 -0.855949
lowerneck 0.10364 -4.29542 -7.16889
upperneck -7.80359 -5.18982 11.6009
head -1.79116 -2.70162 4.73442
rclavicle -3.21037e-014 4.77083e-015
rhumerus -30.1444 51.1764 -60.6136
rradius 104.21
rwrist -50.6102
rhand -2.55345 7.78355
rfingers 7.12502
rthumb 23.1425 -20.8464
lclavicle -3.21037e-014 4.77083e-015
lhumerus -54.3724 -52.1114 99.0308
lradius 108.561
lwrist 25.6308
lhand -0.821138 21.523
lfingers 7.12502
lthumb 24.8036 49.9344
rfemur -8.61668 2.87978 17.5697
rtibia 23.019
rfoot -14.5333 -14.7212
rtoes -9.6584
lfemur -4.14961 -2.87805 -20.72
ltibia 18.1035
lfoot -15.4894 13.1219
ltoes -15.1135
467
root -0.416983 18.0762 -1.81575 1.21573 0.429945 1.77947
lowerback 4.04994 3.88422 -1.01697
upperback 0.437036 5.11031 -1.0402
thorax -1.80789 2.55452 -0.782325
lowerneck 0.305833 -4.17947 -7.10183
upperneck -8.0035 -5.01614 11.7608
head -1.89625 -2.62941 4.78206
rclavicle 3.06222e-014 -1.62506e-014
rhumerus -32.7832 51.4589 -63.7211
rradius 105.245
rwrist -49.6929
rhand -2.12248 8.1515
rfingers 7.12502
rthumb 23.5559 -20.4259
lclavicle 3.06222e-014 -1.62506e-014
lhumerus -54.3525 -51.9393 99.0509
lradius 108.927
lwrist 25.7767
lhand -0.758454 21.6559
lfingers 7.12502
lthumb 24.8637 50.059
rfemur -8.54205 2.86041 17.6173
rtibia 22.8283
rfoot -14.5767 -14.8084
rtoes -9.1344
lfemur -4.14741 -3.00065 -20.669
ltibia 17.9562
lfoot -15.2845 13.1415
ltoes -16.0851
468
root -0.421809 18.0805 -1.80401 1.27937 0.582542 1.8112
lowerback 3.93557 3.82881 -0.982731
upperback 0.392805 5.04106 -0.962111
thorax -1.79385 2.52008 -0.71122
lowerneck 0.331377 -4.07831 -7.11445
upperneck -7.95126 -4.87115 11.9769
head -1.89169 -2.56265 4.84988
rclavicle -7.53906e-014 9.26834e-015
rhumerus -35.4755 51.6817 -66.9298
rradius 106.287
rwrist -48.9427
rhand -2.20279 8.57028
rfingers 7.12502
rthumb 23.4789 -20.017
lclavicle -7.53906e-014 9.26834e-015
lhumerus -54.2399 -51.7202 98.9151
lradius 109.337
lwrist 25.9141
lhand -0.723284 21.7294
lfingers 7.12502
lthumb 24.8974 50.1279
rfemur -8.43873 2.84408 17.6059
rtibia 22.6586
rfoot -14.6438 -14.8976
rtoes -8.85913
lfemur -4.10878 -3.15863 -20.6884
ltibia 17.8105
lfoot -15.3019 13.1169
ltoes -15.5989
469
root -0.427796 18.083 -1.79733 1.3622 0.733444 1.87812
lowerback 3.86745 3.7409 -1.00138
upperback 0.340514 4.92498 -0.895224
thorax -1.81734 2.46256 -0.623833
lowerneck 0.206205 -3.97693 -7.26563
upperneck -7.65425 -4.73458 12.3241
head -1.78226 -2.49165 4.97219
rclavicle -2.85272e-014 -8.34896e-015
rhumerus -37.89 51.8989 -69.9765
rradius 107.239
rwrist -48.4001
rhand -2.41826 8.94967
rfingers 7.12502
rthumb 23.2722 -19.6639
lclavicle -2.85272e-014 -8.34896e-015
lhumerus -54.0191 -51.365 98.6231
lradius 109.766
lwrist 25.9995
lhand -0.720645 21.8084
lfingers 7.12502
lthumb 24.8999 50.2066
rfemur -8.41252 2.85295 17.5591
rtibia 22.5382
rfoot -14.6608 -15.0351
rtoes -8.90464
lfemur -4.10756 -3.31019 -20.7386
ltibia 17.6454
lfoot -15.3106 13.1021
ltoes -15.0058
470
root -0.433347 18.0853 -1.79416 1.44338 0.92347 1.84492
lowerback 3.81796 3.64025 -0.931139
upperback 0.288076 4.79622 -0.787346
thorax -1.84724 2.39819 -0.544382
lowerneck 0.206259 -3.87933 -7.2756
upperneck -7.42054 -4.6109 12.5114
head -1.72029 -2.43096 5.02672
rclavicle -7.09164e-014 -1.6201e-014
rhumerus -40.1558 51.9522 -72.8348
rradius 108.166
rwrist -48.0632
rhand -2.57627 9.13017
rfingers 7.12502
rthumb 23.1206 -19.5025
lclavicle -7.09164e-014 -1.6201e-014
lhumerus -53.8063 -51.0364 98.4488
lradius 110.129
lwrist 26.0824
lhand -0.864622 21.6525
lfingers 7.12502
lthumb 24.762 50.0696
rfemur -8.40705 2.79409 17.6217
rtibia 22.4471
rfoot -14.5956 -15.1743
rtoes -8.95461
lfemur -4.14643 -3.42576 -20.6695
ltibia 17.5132
lfoot -15.2706 13.0508
ltoes -14.9144
471
root -0.436608 18.0881 -1.78729 1.50765 1.06663 1.84073
lowerback 3.72371 3.57169 -0.850347
upperback 0.255213 4.71107 -0.701226
thorax -1.82913 2.35548 -0.491382
lowerneck 0.304208 -3.81251 -7.1552
upperneck -7.27016 -4.53332 12.5286
head -1.70311 -2.39645 5.01125
rclavicle -9.81499e-015 1.28216e-014
rhumerus -42.306 51.812 -75.5661
rradius 109.024
rwrist -47.9273
rhand -2.78375 9.25944
rfingers 7.12502
rthumb 22.9215 -19.3981
lclavicle -9.81499e-015 1.28216e-014
lhumerus -53.5476 -50.7619 98.3177
lradius 110.437
lwrist 26.1874
lhand -1.00466 21.5566
lfingers 7.12502
lthumb 24.6277 49.9921
rfemur -8.39369 2.71841 17.6385
rtibia 22.3892
rfoot -14.5489 -15.2568
rtoes -9.24278
lfemur -4.15349 -3.47867 -20.6444
ltibia 17.4054
lfoot -15.1048 13.0098
ltoes -15.4708
472
root -0.440619 18.0886 -1.78153 1.50103 1.17178 1.84292
lowerback 3.70253 3.50164 -0.788481
upperback 0.234361 4.62247 -0.594213
thorax -1.84269 2.31117 -0.411178
lowerneck 0.390109 -3.72235 -7.16692
upperneck -7.02144 -4.43394 12.5745
head -1.65328 -2.34643 5.02442
rclavicle -1.64619e-015 7.45443e-015
rhumerus -44.1543 51.6495 -78.0476
rradius 109.714
rwrist -47.797
rhand -3.00929 9.43562
rfingers 7.12502
rthumb 22.705 -19.2486
lclavicle -1.64619e-015 7.45443e-015
lhumerus -53.3364 -50.397 98.2377
lradius 110.726
lwrist 26.3692
lhand -0.936341 21.5295
lfingers 7.12502
lthumb 24.6932 49.9561
rfemur -8.3312 2.74708 17.6616
rtibia 22.3647
rfoot -14.5902 -15.3716
rtoes -9.05697
lfemur -4.07585 -3.52898 -20.6323
ltibia 17.2875
lfoot -14.8775 12.9976
ltoes -16.0193
473
root -0.444793 18.0883 -1.7752 1.46715 1.27325 1.91206
lowerback 3.68311 3.4524 -0.787152
upperback 0.236896 4.55872 -0.512219
thorax -1.83577 2.27963 -0.32354
lowerneck 0.645176 -3.63857 -7.24144
upperneck -6.86486 -4.34222 12.6845
head -1.65452 -2.30707 5.07346
rclavicle -1.2834e-014 1.35174e-014
rhumerus -45.723 51.3612 -80.2149
rradius 110.337
rwrist -47.6665
rhand -3.21099 9.58388
rfingers 7.12502
rthumb 22.5115 -19.1239
lclavicle -1.2834e-014 1.35174e-014
lhumerus -53.0837 -50.1045 98.1587
lradius 111.035
lwrist 26.6161
lhand -1.00458 21.5103
lfingers 7.12502
lthumb 24.6278 49.9458
rfemur -8.25293 2.70172 17.6108
rtibia 22.3567
rfoot -14.6231 -15.4681
rtoes -9.17406
lfemur -3.96334 -3.63073 -20.6968
ltibia 17.1659
lfoot -14.8256 12.954
ltoes -15.575
474
root -0.447928 18.0882 -1.76903 1.42785 1.36394 2.04415
lowerback 3.65452 3.42387 -0.814792
upperback 0.261447 4.52071 -0.478831
thorax -1.79934 2.26098 -0.269308
lowerneck 0.945043 -3.6065 -7.30583
upperneck -6.68094 -4.32586 12.784
head -1.64835 -2.30629 5.11799
rclavicle -5.47155e-014 -3.77691e-015
rhumerus -47.0181 50.9194 -82.0324
rradius 110.993
rwrist -47.5482
rhand -3.4095 9.69975
rfingers 7.12502
rthumb 22.3209 -19.031
lclavicle -5.47155e-014 -3.77691e-015
lhumerus -52.6587 -49.8896 98.0138
lradius 111.283
lwrist 26.9036
lhand -1.27111 21.5847
lfingers 7.12502
lthumb 24.3723 50.0548
rfemur -8.16125 2.64945 17.4757
rtibia 22.363
rfoot -14.7393 -15.4512
rtoes -8.73441
lfemur -3.85502 -3.70233 -20.8358
ltibia 17.0651
lfoot -14.6998 12.9916
ltoes -15.9328
475
root -0.450788 18.0885 -1.76528 1.39946 1.40346 2.01159
lowerback 3.6222 3.37195 -0.691336
upperback 0.290668 4.45885 -0.384391
thorax -1.74919 2.22948 -0.234686
lowerneck 1.06536 -3.56364 -7.32936
upperneck -6.33021 -4.30466 12.7845
head -1.56799 -2.29323 5.11804
rclavicle 6.95746e-015 -7.35503e-015
rhumerus -47.9949 50.5556 -83.5362
rradius 111.587
rwrist -47.2102
rhand -3.56266 9.81116
rfingers 7.12502
rthumb 22.1739 -18.9371
lclavicle 6.95746e-015 -7.35503e-015
lhumerus -52.1801 -49.533 97.7787
lradius 111.506
lwrist 27.3275
lhand -1.34425 21.6614
lfingers 7.12502
lthumb 24.3022 50.1409
rfemur -8.11908 2.61825 17.5218
rtibia 22.3913
rfoot -14.8679 -15.3935
rtoes -8.29474
lfemur -3.76566 -3.73872 -20.7868
ltibia 16.9665
lfoot -14.5551 13.0238
ltoes -16.5381
